# xmcd
#
# Track frame offsets: 
#        150
#        20562
#        33350
#        48095
#        61242
#        74925
#        88805
#        102465
#        120540
#        135027
#
# Disc length: 1968 seconds
#
# Revision: 2
# Processed by: cddbd v1.4PL0 Copyright (c) Steve Scherf et al.
# Submitted via: ExactAudioCopy v0.90b3
#
DISCID=8507ae0a
DTITLE=Merle Haggard - I Think I'll Just Stay Here And Drink
DYEAR=1900
DGENRE=Country
TTITLE0=I Think I'll Just Stay Here And Drink
TTITLE1=I'm Always On A Mountain (When I Fall)
TTITLE2=Fiddle Breakdown
TTITLE3=I Think It's Gone Forever
TTITLE4=The Dream
TTITLE5=Got Lonely Too Early (This Morning)
TTITLE6=Mama I've Got To Go To Memphis
TTITLE7=Footlights
TTITLE8=I Can't Get Away
TTITLE9=Are You Lonesome Tonight
EXTD=
EXTT0=
EXTT1=
EXTT2=
EXTT3=
EXTT4=
EXTT5=
EXTT6=
EXTT7=
EXTT8=
EXTT9=
PLAYORDER=
